Patient4_TMGait_0pt4_02_left_06_EMG.mot
version=1
nRows=40
nColumns=33
inDegrees=no
endheader
time	1LAddLong	2LGlutMax	3LGlutMed	4LIliopsoas	5LSemiMemb	6LBicFemLong	7LRecFem	8LVastMed	9LVastLat	10LGasMed	11LTibAnt	12lTibPost	13LPeroneusLong	14LSol	15LExtDigLong	16LFlexDigLong	17RAddLong	18RGlutMax	19RGlutMed	20RIliopsoas	21RSemiMemb	22RBicFemLong	23RRecFem	24RVastMed	25RVastLat	26RGasMed	27RTibAnt	28RTibPost	29RPeroneusLong	30RSol	31RExtDigLong	32RFlexDigLong
8.06	0.005341	0.69702	0.029755	-0.00946	0.009155	-0.059814	0.672	0.008545	-0.41489	0.003204	0.001526	-0.039215	-0.065613	-0.10254	0.11902	0.027161	0.007477	0.094757	0.15595	0.035706	-0.084991	-0.014343	0.027008	-0.009613	0.019073	-0.020447	-0.003357	0.13077	0.18112	-0.015411	-0.00412	-0.003357
8.061	0.001678	0.62561	0.034332	-0.006561	0.010376	-0.04715	0.70099	0.009308	-0.4129	-0.018311	0.073547	-0.025024	-0.063019	-0.10956	0.05188	0.034943	0.007629	0.13214	0.63049	0.031433	-0.10086	-0.028381	-0.02121	-0.008087	0.024567	-0.014496	0.008087	0.054169	0.090637	-0.14557	-0.002594	-0.001831
8.062	-0.003662	0.62668	0.053406	0.00351	0.001984	-0.022125	0.72754	0.014343	-0.40955	-0.041046	0.18692	-0.017853	-0.065002	-0.083466	0.026245	0.039368	0.008545	0.16052	0.83283	0.042114	0.064087	-0.057831	-0.024109	0.046082	0.014038	-0.007019	0.068512	-0.019226	-0.10895	0.24612	-0.002899	-0.003357
8.063	0	0.61584	0.027161	-0.000763	0.010071	-0.01236	0.75882	0.019073	-0.37643	-0.06134	0.16663	-0.000458	-0.041351	-0.027313	-0.00824	0.018921	-0.002441	0.1564	1.1568	0.013123	0.012665	-0.1004	-0.003204	0.014191	0.015106	-0.009766	0.09964	0.013885	-0.16876	0.072174	-0.002899	-0.007477
8.064	-0.00473	0.53024	0.014038	-0.003662	0.013885	-0.002747	0.78934	0.010223	-0.31708	-0.079651	-0.017242	0.001221	-0.03067	-0.07782	-0.12817	0.037994	-0.000458	0.083008	0.58853	-0.014954	-0.058594	-0.095673	-0.081787	0.020905	-0.010071	0.006561	0.047302	0.007019	-0.085907	-0.14862	-0.004272	0.000458
8.065	0.002594	0.50339	0.034027	0.001068	0.015869	0.016479	0.83496	0.009003	-0.25864	-0.088043	-0.053558	0.012512	-0.025635	-0.084076	0.24445	0.025635	0.014648	0.12238	0.80917	-0.072327	-0.015411	-0.11414	-0.10925	0.032959	-0.015564	-0.001678	0	0.001526	-0.007172	-0.39291	-0.004578	-0.001068
8.066	0.007019	0.47028	0.045166	0.028076	0.003815	0.02533	0.82459	0.005951	-0.20691	-0.04425	-0.064392	0.009766	-0.062561	-0.058289	0.022125	0.014496	0.023804	0.088501	0.17288	-0.021362	0.068054	-0.14771	-0.005035	-0.006866	-0.041504	-0.010986	0.021515	-0.009766	-0.025024	-0.41473	-0.003662	0.005341
8.067	0.009155	0.43381	0.0177	0.037384	0.007324	0.014038	0.80399	0.013123	-0.1648	-0.029755	-0.020294	0.014801	-0.098877	-0.057831	-0.12878	0.024719	0.040588	0.057526	-0.31723	0.045929	0.014343	-0.1532	0.045624	-0.04364	-0.032349	-0.014038	0.004425	-0.007172	0.083923	-0.09552	-0.002289	0.008392
8.068	-0.002289	0.41199	-0.013885	0.035095	0.014038	0.004578	0.70404	0.012207	-0.12421	-0.044708	-0.005341	0.021515	-0.074921	-0.057983	-0.074921	0.035706	0.031128	0.004883	-0.4451	0.056305	-0.049896	-0.12054	0.045319	-0.062103	-0.032349	-0.006714	-0.019226	-0.006409	0.14832	0.51987	-0.005035	0.001526
8.069	-0.001831	0.37598	0.014191	0.023956	0.005035	0.036316	0.61569	0.012817	-0.092621	-0.04776	0.023956	0.018311	-0.009613	-0.085754	-0.095978	0.031128	0.004425	0.05722	-0.71213	0.014343	0.005035	-0.054016	0.034332	-0.003662	-0.028381	-0.007019	0.00946	-0.005341	-0.090637	0.41931	-0.003662	-0.006866
8.07	0.003357	0.3595	0.001373	0.014343	0.005035	0.012054	0.54184	0.01297	-0.063171	-0.063629	0.13412	0.02533	-0.006409	-0.10269	-0.10239	0.032196	0.016785	0.083008	-0.63446	-0.11505	0.068054	-0.018921	-0.008392	0.016174	0.001221	-0.000763	0.021973	-0.029449	-0.079041	0.22034	-0.001526	-0.012817
8.071	-0.001984	0.31158	0.011597	0.007324	-0.001068	0.029297	0.46707	0.007935	-0.031738	-0.05661	0.2565	0.015717	-0.028839	-0.10223	0.079498	0.027008	-0.000916	0.14557	0.020752	-0.18738	0.039978	-0.031738	-0.028839	0.048065	0.014038	-0.009155	0.026855	-0.18326	-0.15869	0.053864	-0.002441	-0.009308
8.072	0.006866	0.29968	0.016785	0.014038	-0.00473	0.030212	0.39932	0.009003	-0.002747	-0.035553	0.17532	0.018616	-0.018768	-0.18265	0.15167	0.023804	-0.006256	0.14755	0.62515	-0.068817	0.043182	-0.043335	-0.05661	0.079498	0.037231	-0.001373	0.027161	-0.009918	-0.10178	-0.042572	-0.004883	-0.004425
8.073	0.00412	0.22888	0.020599	0.041809	0.002289	0.051575	0.35278	0.007019	0.022583	-0.007172	-0.012665	0.016632	-0.032349	-0.1181	0.010834	0.025635	-0.01709	0.12665	0.31326	0.15717	0.005341	-0.032959	0.001831	0.050201	0.020752	-0.001678	-0.016632	0.11704	0.01297	-0.012665	-0.007172	-0.006256
8.074	0.005646	0.23132	0.063171	0.03006	0.005646	0.032959	0.30533	0.00946	0.036926	0.007782	-0.097961	0.019684	-0.048981	-0.025787	-0.056763	0.024872	-0.004272	0.10101	0.37628	0.27985	-0.063782	-0.05661	-0.040436	0.087128	0.021515	-0.002594	0.016022	0.022125	0.089874	-0.026703	-0.000916	-0.005951
8.075	0.001526	0.21362	0.055542	0.019836	0.003815	0.045471	0.26733	0.011902	0.069733	-0.002289	-0.084229	0.016479	-0.023193	-0.049286	-0.013275	0.023499	0.007019	0.12589	0.053711	0.16617	0.010376	0.001221	-0.030212	0.071564	-0.037842	0.00473	0.034637	-0.002136	-0.2243	-0.031281	-0.000305	-0.007324
8.076	0.001221	0.16007	0.015869	0.019073	0.001831	0.039673	0.22675	0.015717	0.096893	-0.029907	-0.075073	0.009155	0.009155	-0.045319	-0.007935	0.029449	0.004425	0.14633	0.43915	0.12772	0.025787	-0.02594	-0.023193	-0.009308	-0.059814	0.009308	0.0383	-0.014343	-0.1445	0.000305	-0.003052	-0.00885
8.077	-0.002747	0.15274	-0.026245	-0.006714	0.001831	0.029144	0.1976	0.01236	0.11231	-0.031586	0.02182	0.016479	0.030212	-0.013733	-0.061188	0.024109	0.021667	0.14633	0.21561	0.046082	0.033264	-0.06485	0.057678	-0.15869	-0.078888	-0.005493	0.005951	-0.010223	0.14557	0.048676	-0.001984	-0.00946
8.078	-0.002136	0.1207	-0.028534	-0.00473	0.004425	0.030518	0.15167	0.008392	0.11673	-0.00885	0.057526	0.013733	0.067139	-0.080261	-0.027924	0.013275	0.016632	0.1471	1.3837	-0.061493	0.05249	-0.045624	0.062714	-0.10727	-0.05722	-0.010376	-0.054779	-0.014343	0.063019	0.031281	-0.004272	-0.009003
8.079	0.001068	0.13916	-0.00061	0.007172	-0.011902	0.035706	0.13733	0.006409	0.12344	-0.021973	0.001526	0.013733	0.14191	-0.13077	0.085449	0.030518	0.016785	0.14099	1.2064	-0.090179	-0.050049	-0.048065	0.11078	-0.071564	-0.037842	-0.007324	-0.036011	-0.00412	-0.016785	0.028229	-0.005341	0.00412
8.08	0.003357	0.059052	0.005951	-0.01709	-0.00351	0.034332	0.11307	0.006256	0.13825	-0.014038	-0.14282	-0.000916	0.13062	-0.15015	0.059814	0.02533	0.02594	0.14114	0.69382	-0.074463	-0.18616	-0.050964	0.14786	0.01297	-0.019379	-0.00824	-0.025024	-0.018005	0.031586	0.0383	-0.005798	-0.002899
8.081	0	0.058136	-0.04776	0.004272	0.00061	0.018921	0.088501	0.00061	0.14496	-0.014801	-0.18066	0.001984	0.058441	-0.12802	0.060883	0.02243	0.022888	0.18555	0.57999	-0.019531	-0.16647	-0.12405	0.036469	0.056152	-0.029144	-0.010376	0.012665	-0.021362	-0.010834	0.007324	-0.010071	0.000305
8.082	0.006409	0.022888	-0.079498	0.014038	0.001373	0.032043	0.066681	0.010223	0.15625	-0.026245	-0.22964	0.006409	0.048065	-0.10727	0.20996	0.024719	-0.002594	0.20142	0.068054	-0.015411	0.010376	-0.12466	-0.10391	0.041656	-0.014343	-0.001831	0.018616	-0.026855	-0.07782	0.003815	-0.004272	-0.012512
8.083	-0.006409	0.039978	-0.025177	-0.007172	0.001526	0.04425	0.040741	0.008087	0.1593	-0.022888	-0.17349	0.00885	0.001373	-0.037994	0.074768	0.041962	-0.040283	0.14587	0.042725	-0.080261	0.06073	-0.030975	-0.1886	0.1268	0.009766	0.011597	0.044556	-0.067902	-0.14221	-0.008545	-0.00824	-0.006409
8.084	0.001678	0.035095	0.033417	0.005188	0.005951	0.03067	0.040436	0.006104	0.14343	-0.019684	-0.002441	0.005035	-0.043488	-0.014801	0.5574	0.03006	-0.020142	0.13763	-0.021057	-0.099945	0.11093	0.056915	-0.070496	0.018463	-0.046387	0.002289	0.030518	-0.029907	-0.14435	-0.016632	-0.00412	-0.009308
8.085	0.003357	0.050964	0.015259	0.024872	0.014191	0.017548	0.016327	0.004425	0.15381	-0.000305	0.046387	0.002441	-0.04425	0.011444	0.24399	0.027466	0.014038	0.12619	0.09079	-0.036316	0.062408	0.048676	0.02243	0.019836	-0.079193	0.000458	0.08255	0.069885	-0.19531	-0.025635	-0.004883	-0.011139
8.086	0.006104	0.073242	0.061646	0.019836	0.000916	0.020752	0.001068	0.00351	0.17609	0.001831	0.075378	-0.00061	-0.037079	0.04425	0.12787	0.027466	-0.018921	0.1387	0.12238	0.006866	-0.16373	0.084534	0.13184	0.11169	-0.12741	-0.008087	0.063782	0.02182	-0.18356	0.052643	0.000916	-0.010223
8.087	0.006409	0.052032	0.074921	0.021667	-0.031586	-0.00061	-0.03067	0.006256	0.18662	-0.036011	0.168	0.007629	0.016632	0.098267	-0.23544	0.019226	-0.031891	0.19165	0.52277	0.02533	-0.25879	0.053253	-0.011902	0.070496	-0.13062	-0.010376	0.046997	-0.002747	-0.1976	0.10101	-0.004425	-0.018463
8.088	0.014801	0.025177	-0.00473	0.01709	-0.010223	0.012512	-0.060425	0.00824	0.1918	-0.028381	0.27741	-0.004883	0.012512	0.049744	-0.52445	0.025635	-0.014343	0.19287	0.24857	0.052185	0.046692	-0.067139	-0.31235	-0.007324	0.029907	-0.010071	0.05661	-0.004272	-0.18372	-0.030975	-0.00412	-0.016937
8.089	0.015717	-0.003815	-0.041504	0.023651	0.00351	-0.012512	-0.079956	0.005188	0.20203	-0.009613	0.21439	-0.001984	0.05188	0.026855	-0.010834	0.020447	0.003204	0.25574	0.2272	0.030518	0.1944	-0.091858	-0.33997	0.031586	0.11597	0.005798	0.031128	-0.009918	-0.14084	-0.16983	-0.005798	-0.005035
8.09	0.011902	0.018616	-0.016785	0.014191	-0.036011	-0.041046	-0.0914	-0.00061	0.2124	-0.047302	-0.085449	-0.002747	0.1152	0.15411	-0.16388	0.006104	-0.001068	0.31998	0.53665	-0.050659	-0.063477	-0.029297	-0.2652	0.058746	0.18082	-0.001831	0.002136	-0.011292	-0.066376	-0.10452	-0.003815	-0.006866
8.091	0.019226	0.00473	-0.00473	-0.001221	-0.002136	-0.047607	-0.11154	0.004425	0.22079	-0.029144	-0.17487	-0.00946	0.081177	0.034637	-0.4425	0.00946	-0.007935	0.30762	0.26382	-0.067444	-0.39124	0.010223	-0.19791	0.051575	0.23086	-0.013885	-0.028992	-0.009766	0.06134	-0.063171	-0.001221	-0.003204
8.092	0.009308	-0.025024	0.034485	-0.015411	0.023041	-0.036926	-0.10788	0.029907	0.22293	-0.02243	-0.064392	-0.002441	0.014191	-0.057678	-0.66803	0.002289	0.010834	0.23926	-0.22675	0.014954	-0.36972	-0.009003	-0.054016	0.075836	0.14252	-0.019073	-0.041046	-0.015564	0.092316	-0.008545	-0.002441	-0.004272
8.093	0.007172	-0.041199	0.018921	0.008392	-0.009003	-0.013733	-0.11688	0.011749	0.20538	-0.028839	-0.02182	0.006714	-0.025024	-0.12634	-0.47379	0.001221	0.017395	0.19684	-0.46188	0.049133	0.30533	-0.061646	-0.024261	0.049286	0.058594	-0.009308	-0.029755	-0.005646	0.028076	-0.032501	-0.005035	-0.002899
8.094	0.003662	-0.003967	-0.010529	0.013885	-0.015717	-0.018158	-0.12329	0.00946	0.2124	-0.042114	-0.046997	-0.001984	0.005188	-0.11414	-0.18066	-0.003052	0	0.20874	0.087891	0.00824	0.29098	-0.048523	-0.02594	0.001373	0.016785	-0.001068	-0.029449	-0.006256	-0.12924	-0.033875	-0.001373	-0.010071
8.095	0.016174	-0.001678	-0.007935	0.005188	-0.057831	-0.026855	-0.12726	0.008087	0.21271	-0.055847	0.06424	-0.001831	0.061035	-0.07843	0.00351	-0.001068	0.010986	0.24155	0.45487	-0.057373	0.16373	-0.022736	-0.03952	-0.0737	-0.013428	0.001831	-0.041504	-0.005646	-0.079193	-0.019684	-0.005341	-0.010223
8.096	0.011139	0.030365	0.003662	-0.003204	-0.029907	-0.035095	-0.12955	0.003662	0.2002	-0.032349	0.087433	-0.001221	0.085297	-0.018158	0.061951	0.002747	0.012207	0.30823	0.52078	-0.075531	-0.095367	-0.029602	-0.046692	-0.050812	-0.054016	-0.001678	-0.017548	-0.000153	-0.084076	-0.032654	-0.005798	-0.000458
8.097	0.01709	0.02533	-0.041809	-0.002441	0.01709	-0.045471	-0.12695	0.001678	0.20294	-0.058136	0.033875	-0.010834	0.12222	0.029907	0.1004	0.014648	0.007935	0.26321	0.32654	-0.011749	-0.14358	-0.077209	0.023346	-0.077057	-0.10407	-0.006256	-0.013428	0.001526	-0.071411	-0.079803	-0.005646	-0.007477
8.098	0.020294	-0.002899	-0.026093	0.00885	0.01236	-0.073853	-0.12878	0.002289	0.18921	-0.066986	0.015717	0	0.067139	0.016174	0.11108	0.011597	0.006256	0.19684	0.078125	-0.036774	-0.10803	-0.060425	0.000916	-0.10498	-0.063019	-0.00061	0.009308	-0.006714	-0.098267	-0.1831	-0.005951	0.000763
8.099	0.02533	0.014648	-0.05188	0.003967	0.030975	-0.048065	-0.14206	-0.002441	0.18326	-0.093689	0.013275	0.005951	-0.014648	-0.008392	0.099792	0.007477	-0.007935	0.24628	0.10742	0.005188	-0.033569	-0.039673	-0.022125	-0.046234	0.010529	0.000763	0.056152	-0.014801	-0.086975	0.058899	-0.007935	-0.003357
